{
  "accessors": [
    {
      "bufferView": 2,
      "componentType": 5126,
      "count": 65532,
      "max": [
        526.8309326171875,
        231.80117797851563,
        351.2800598144531
      ],
      "min": [
        -410.2532043457031,
        -102.19154357910156,
        -386.56683349609375
      ],
      "type": "VEC3"
    },
    {
      "bufferView": 2,
      "byteOffset": 786384,
      "componentType": 5126,
      "count": 65532,
      "max": [
        0.9999676942825317,
        0.9999998807907104,
        0.9999208450317383
      ],
      "min": [
        -0.9999520778656006,
        -0.9842485189437866,
        -0.9998179078102112
      ],
      "type": "VEC3"
    },
    {
      "bufferView": 1,
      "componentType": 5126,
      "count": 65532,
      "max": [
        0.9979939460754395,
        0.9994507431983948
      ],
      "min": [
        0.0004342445754446089,
        0.0005485415458679199
      ],
      "type": "VEC2"
    },
    {
      "bufferView": 0,
      "componentType": 5125,
      "count": 299292,
      "type": "SCALAR"
    },
    {
      "bufferView": 2,
      "byteOffset": 1572768,
      "componentType": 5126,
      "count": 65532,
      "max": [
        494.69580078125,
        258.78533935546875,
        340.13348388671875
      ],
      "min": [
        -415.9456787109375,
        -104.27034759521484,
        -402.8572998046875
      ],
      "type": "VEC3"
    },
    {
      "bufferView": 2,
      "byteOffset": 2359152,
      "componentType": 5126,
      "count": 65532,
      "max": [
        0.9999624490737915,
        0.9999982714653015,
        0.9998400807380676
      ],
      "min": [
        -0.999843955039978,
        -0.9877122044563293,
        -0.999872624874115
      ],
      "type": "VEC3"
    },
    {
      "bufferView": 1,
      "byteOffset": 524256,
      "componentType": 5126,
      "count": 65532,
      "max": [
        0.9985337257385254,
        0.9945160746574402
      ],
      "min": [
        0.00038369715912267566,
        0.001166224479675293
      ],
      "type": "VEC2"
    },
    {
      "bufferView": 0,
      "byteOffset": 1197168,
      "componentType": 5125,
      "count": 296973,
      "type": "SCALAR"
    },
    {
      "bufferView": 2,
      "byteOffset": 3145536,
      "componentType": 5126,
      "count": 65532,
      "max": [
        532.5794067382813,
        245.94479370117188,
        334.9227294921875
      ],
      "min": [
        -420.12322998046875,
        -104.10108947753906,
        -387.0365905761719
      ],
      "type": "VEC3"
    },
    {
      "bufferView": 2,
      "byteOffset": 3931920,
      "componentType": 5126,
      "count": 65532,
      "max": [
        0.9997341632843018,
        0.9999998807907104,
        0.9998937845230103
      ],
      "min": [
        -0.9999740123748779,
        -0.997406005859375,
        -0.9998179078102112
      ],
      "type": "VEC3"
    },
    {
      "bufferView": 1,
      "byteOffset": 1048512,
      "componentType": 5126,
      "count": 65532,
      "max": [
        0.9973927140235901,
        0.9996105432510376
      ],
      "min": [
        0.0003891855594702065,
        0.001015305519104004
      ],
      "type": "VEC2"
    },
    {
      "bufferView": 0,
      "byteOffset": 2385060,
      "componentType": 5125,
      "count": 295311,
      "type": "SCALAR"
    },
    {
      "bufferView": 2,
      "byteOffset": 4718304,
      "componentType": 5126,
      "count": 65532,
      "max": [
        494.5075378417969,
        264.5876770019531,
        353.3105163574219
      ],
      "min": [
        -422.9732666015625,
        -104.20722198486328,
        -402.8736267089844
      ],
      "type": "VEC3"
    },
    {
      "bufferView": 2,
      "byteOffset": 5504688,
      "componentType": 5126,
      "count": 65532,
      "max": [
        0.9996208548545837,
        0.9999985694885254,
        0.9999414682388306
      ],
      "min": [
        -0.9999567866325378,
        -0.9997382164001465,
        -0.999976396560669
      ],
      "type": "VEC3"
    },
    {
      "bufferView": 1,
      "byteOffset": 1572768,
      "componentType": 5126,
      "count": 65532,
      "max": [
        0.9982800483703613,
        0.9996762275695801
      ],
      "min": [
        0.00030993722612038255,
        0.0005274415016174316
      ],
      "type": "VEC2"
    },
    {
      "bufferView": 0,
      "byteOffset": 3566304,
      "componentType": 5125,
      "count": 288075,
      "type": "SCALAR"
    },
    {
      "bufferView": 2,
      "byteOffset": 6291072,
      "componentType": 5126,
      "count": 65532,
      "max": [
        498.94024658203125,
        261.72003173828125,
        355.8403625488281
      ],
      "min": [
        -417.49755859375,
        -101.91680908203125,
        -385.7321472167969
      ],
      "type": "VEC3"
    },
    {
      "bufferView": 2,
      "byteOffset": 7077456,
      "componentType": 5126,
      "count": 65532,
      "max": [
        0.9999688267707825,
        0.9999994039535522,
        0.999971866607666
      ],
      "min": [
        -0.9999909400939941,
        -0.9977134466171265,
        -0.999976396560669
      ],
      "type": "VEC3"
    },
    {
      "bufferView": 1,
      "byteOffset": 2097024,
      "componentType": 5126,
      "count": 65532,
      "max": [
        0.9984707832336426,
        0.9996720552444458
      ],
      "min": [
        0.0003053450200241059,
        0.0004582405090332031
      ],
      "type": "VEC2"
    },
    {
      "bufferView": 0,
      "byteOffset": 4718604,
      "componentType": 5125,
      "count": 261975,
      "type": "SCALAR"
    },
    {
      "bufferView": 2,
      "byteOffset": 7863840,
      "componentType": 5126,
      "count": 65532,
      "max": [
        540.4188842773438,
        264.5876770019531,
        355.3156433105469
      ],
      "min": [
        -455.4293518066406,
        -103.76676177978516,
        -405.22503662109375
      ],
      "type": "VEC3"
    },
    {
      "bufferView": 2,
      "byteOffset": 8650224,
      "componentType": 5126,
      "count": 65532,
      "max": [
        0.9997469186782837,
        0.9999998807907104,
        0.9998400807380676
      ],
      "min": [
        -0.9999922513961792,
        -0.9997382164001465,
        -0.9999149441719055
      ],
      "type": "VEC3"
    },
    {
      "bufferView": 1,
      "byteOffset": 2621280,
      "componentType": 5126,
      "count": 65532,
      "max": [
        0.9984765648841858,
        0.9996917843818665
      ],
      "min": [
        0.0003053450200241059,
        0.000466763973236084
      ],
      "type": "VEC2"
    },
    {
      "bufferView": 0,
      "byteOffset": 5766504,
      "componentType": 5125,
      "count": 208251,
      "type": "SCALAR"
    },
    {
      "bufferView": 2,
      "byteOffset": 9436608,
      "componentType": 5126,
      "count": 65532,
      "max": [
        542.2470703125,
        264.5876770019531,
        355.8403625488281
      ],
      "min": [
        -457.7529602050781,
        -103.92810821533203,
        -401.3802490234375
      ],
      "type": "VEC3"
    },
    {
      "bufferView": 2,
      "byteOffset": 10222992,
      "componentType": 5126,
      "count": 65532,
      "max": [
        0.9999703764915466,
        0.9999993443489075,
        0.999971866607666
      ],
      "min": [
        -0.999970555305481,
        -0.997696042060852,
        -0.9999149441719055
      ],
      "type": "VEC3"
    },
    {
      "bufferView": 1,
      "byteOffset": 3145536,
      "componentType": 5126,
      "count": 65532,
      "max": [
        0.998468279838562,
        0.9996458292007446
      ],
      "min": [
        0.00031419392325915396,
        0.000466763973236084
      ],
      "type": "VEC2"
    },
    {
      "bufferView": 0,
      "byteOffset": 6599508,
      "componentType": 5125,
      "count": 191124,
      "type": "SCALAR"
    },
    {
      "bufferView": 2,
      "byteOffset": 11009376,
      "componentType": 5126,
      "count": 12507,
      "max": [
        540.8140258789063,
        264.3301086425781,
        355.06060791015625
      ],
      "min": [
        -456.2018737792969,
        -104.27034759521484,
        -402.4778137207031
      ],
      "type": "VEC3"
    },
    {
      "bufferView": 2,
      "byteOffset": 11159460,
      "componentType": 5126,
      "count": 12507,
      "max": [
        0.9995943903923035,
        0.999995768070221,
        0.9993059039115906
      ],
      "min": [
        -0.9999611377716064,
        -0.9990073442459106,
        -0.999872624874115
      ],
      "type": "VEC3"
    },
    {
      "bufferView": 1,
      "byteOffset": 3669792,
      "componentType": 5126,
      "count": 12507,
      "max": [
        0.9983978867530823,
        0.999581515789032
      ],
      "min": [
        0.0003091048856731504,
        0.000573575496673584
      ],
      "type": "VEC2"
    },
    {
      "bufferView": 0,
      "byteOffset": 7364004,
      "componentType": 5125,
      "count": 15024,
      "type": "SCALAR"
    }
  ],
  "asset": {
    "extras": {
      "author": "b_nealie (https://sketchfab.com/b_nealie)",
      "license": "CC-BY-4.0 (http://creativecommons.org/licenses/by/4.0/)",
      "source": "https://sketchfab.com/3d-models/basalt-rocks-on-beach-39a49ad24271485a90872c3e631d30d4",
      "title": "Basalt rocks on beach"
    },
    "generator": "Sketchfab-12.68.0",
    "version": "2.0"
  },
  "bufferViews": [
    {
      "buffer": 0,
      "byteLength": 7424100,
      "name": "floatBufferViews",
      "target": 34963
    },
    {
      "buffer": 0,
      "byteLength": 3769848,
      "byteOffset": 7424100,
      "byteStride": 8,
      "name": "floatBufferViews",
      "target": 34962
    },
    {
      "buffer": 0,
      "byteLength": 11309544,
      "byteOffset": 11193948,
      "byteStride": 12,
      "name": "floatBufferViews",
      "target": 34962
    }
  ],
  "buffers": [
    {
      "byteLength": 22503492,
      "uri": "scene.bin"
    }
  ],
  "extensionsUsed": [
    "KHR_materials_unlit"
  ],
  "images": [
    {
      "uri": "textures/Material0_baseColor.jpeg"
    }
  ],
  "materials": [
    {
      "doubleSided": true,
      "extensions": {
        "KHR_materials_unlit": {}
      },
      "name": "Material0",
      "pbrMetallicRoughness": {
        "baseColorTexture": {
          "index": 0
        },
        "metallicFactor": 0.0
      }
    }
  ],
  "meshes": [
    {
      "name": "Stereo textured mesh_Material0_0",
      "primitives": [
        {
          "attributes": {
            "NORMAL": 1,
            "POSITION": 0,
            "TEXCOORD_0": 2
          },
          "indices": 3,
          "material": 0,
          "mode": 4
        }
      ]
    },
    {
      "name": "Stereo textured mesh_Material0_0",
      "primitives": [
        {
          "attributes": {
            "NORMAL": 5,
            "POSITION": 4,
            "TEXCOORD_0": 6
          },
          "indices": 7,
          "material": 0,
          "mode": 4
        }
      ]
    },
    {
      "name": "Stereo textured mesh_Material0_0",
      "primitives": [
        {
          "attributes": {
            "NORMAL": 9,
            "POSITION": 8,
            "TEXCOORD_0": 10
          },
          "indices": 11,
          "material": 0,
          "mode": 4
        }
      ]
    },
    {
      "name": "Stereo textured mesh_Material0_0",
      "primitives": [
        {
          "attributes": {
            "NORMAL": 13,
            "POSITION": 12,
            "TEXCOORD_0": 14
          },
          "indices": 15,
          "material": 0,
          "mode": 4
        }
      ]
    },
    {
      "name": "Stereo textured mesh_Material0_0",
      "primitives": [
        {
          "attributes": {
            "NORMAL": 17,
            "POSITION": 16,
            "TEXCOORD_0": 18
          },
          "indices": 19,
          "material": 0,
          "mode": 4
        }
      ]
    },
    {
      "name": "Stereo textured mesh_Material0_0",
      "primitives": [
        {
          "attributes": {
            "NORMAL": 21,
            "POSITION": 20,
            "TEXCOORD_0": 22
          },
          "indices": 23,
          "material": 0,
          "mode": 4
        }
      ]
    },
    {
      "name": "Stereo textured mesh_Material0_0",
      "primitives": [
        {
          "attributes": {
            "NORMAL": 25,
            "POSITION": 24,
            "TEXCOORD_0": 26
          },
          "indices": 27,
          "material": 0,
          "mode": 4
        }
      ]
    },
    {
      "name": "Stereo textured mesh_Material0_0",
      "primitives": [
        {
          "attributes": {
            "NORMAL": 29,
            "POSITION": 28,
            "TEXCOORD_0": 30
          },
          "indices": 31,
          "material": 0,
          "mode": 4
        }
      ]
    }
  ],
  "nodes": [
    {
      "children": [
        1
      ],
      "matrix": [
        1.0,
        0.0,
        0.0,
        0.0,
        0.0,
        2.220446049250313e-16,
        -1.0,
        0.0,
        0.0,
        1.0,
        2.220446049250313e-16,
        0.0,
        0.0,
        0.0,
        0.0,
        1.0
      ],
      "name": "Sketchfab_model"
    },
    {
      "children": [
        2
      ],
      "matrix": [
        1.0,
        0.0,
        0.0,
        0.0,
        0.0,
        0.0,
        1.0,
        0.0,
        0.0,
        -1.0,
        0.0,
        0.0,
        0.0,
        0.0,
        0.0,
        1.0
      ],
      "name": "sketchfabTemp.obj.fbx"
    },
    {
      "children": [
        3
      ],
      "name": "RootNode"
    },
    {
      "children": [
        4,
        5,
        6,
        7,
        8,
        9,
        10,
        11
      ],
      "name": "Stereo textured mesh"
    },
    {
      "mesh": 0,
      "name": "Stereo textured mesh_Material0_0"
    },
    {
      "mesh": 1,
      "name": "Stereo textured mesh_Material0_0"
    },
    {
      "mesh": 2,
      "name": "Stereo textured mesh_Material0_0"
    },
    {
      "mesh": 3,
      "name": "Stereo textured mesh_Material0_0"
    },
    {
      "mesh": 4,
      "name": "Stereo textured mesh_Material0_0"
    },
    {
      "mesh": 5,
      "name": "Stereo textured mesh_Material0_0"
    },
    {
      "mesh": 6,
      "name": "Stereo textured mesh_Material0_0"
    },
    {
      "mesh": 7,
      "name": "Stereo textured mesh_Material0_0"
    }
  ],
  "samplers": [
    {
      "magFilter": 9729,
      "minFilter": 9987,
      "wrapS": 10497,
      "wrapT": 10497
    }
  ],
  "scene": 0,
  "scenes": [
    {
      "name": "Sketchfab_Scene",
      "nodes": [
        0
      ]
    }
  ],
  "textures": [
    {
      "sampler": 0,
      "source": 0
    }
  ]
}
